<svg xmlns="http://www.w3.org/2000/svg" viewBox="0 0 191.35 96.35"><defs><style>.cls-1{fill:#fff;}</style></defs><g id="Ebene_2" data-name="Ebene 2"><g id="Ebene_2-2" data-name="Ebene 2"><path class="cls-1" d="M54.47,44.48C49.89,29.55,76.78-6.43,108.13,1c24.42,5.79,38.78,34.9,32,48.18C129.58,70.05,60.57,64.37,54.47,44.48Z"/><path class="cls-1" d="M104,61.55c-4.58-14.93,22.31-50.91,53.65-43.48,24.43,5.79,38.79,34.9,32,48.18C179.09,87.12,110.09,81.44,104,61.55Z"/><path class="cls-1" d="M.63,62.71C-3.95,47.78,22.94,11.8,54.29,19.23c24.42,5.79,38.78,34.9,32,48.18C75.74,88.28,6.74,82.6.63,62.71Z"/><path class="cls-1" d="M0,58.59s3.27,38.9,101.27,37.73S191.06,62,191.06,62Z"/></g></g></svg>