<svg xmlns="http://www.w3.org/2000/svg" viewBox="0 0 313.69 150.03"><defs><style>.cls-1{fill:#fff;}</style></defs><g id="Ebene_2" data-name="Ebene 2"><g id="Ebene_2-2" data-name="Ebene 2"><path class="cls-1" d="M1.06,88.82C-4.73,70.62,30.62,25,71.55,34.46c30,7,50.36,40.63,42.87,57C102.2,118,8.92,113.51,1.06,88.82Z"/><path class="cls-1" d="M94,76C85.65,51.45,125.55-8,177.46.9c43.4,7.42,68.54,58,57.64,80.64C218.41,116.19,105.3,109.43,94,76Z"/><path class="cls-1" d="M216.08,95.78c-12.82-19.37,11.77-77,48.7-76.39,28.5.49,54,35.5,48,57.36C304.32,107.88,230.58,117.7,216.08,95.78Z"/><path class="cls-1" d="M.4,86S-16.84,160.27,176,148.83c137.24-8.14,137.24-72.11,137.24-72.11Z"/></g></g></svg>