<svg xmlns="http://www.w3.org/2000/svg" viewBox="0 0 1723.01 1081">
  <defs>
    <style>.cls-1{fill:#002e46;}</style>
  </defs>
  <g id="Ebene_2" data-name="Ebene 2">
    <g id="_4._Zeichenfläche" data-name="4. Zeichenfläche">
      <polygon class="cls-1" points="1716.55 901.29 1664.64 991.21 0 30.09 0 0 156.09 0 1716.55 901.29" />
      <rect class="cls-1" x="1454.77" y="857.3" width="145.35" height="223.7" />
      <polygon class="cls-1" points="0 28 0 1080 1456.77 1080 1456.77 868.04 0 28" />
      <rect class="cls-1" x="150.01" y="11.12" width="70" height="30" transform="translate(20.1 -61.71) rotate(20)" />
      <rect class="cls-1" x="212.01" y="47.12" width="70" height="30" transform="translate(36.15 -80.75) rotate(20)" />
      <rect class="cls-1" x="274.01" y="83.12" width="70" height="30" transform="translate(52.21 -99.79) rotate(20)" />
      <rect class="cls-1" x="336.01" y="119.12" width="70" height="30" transform="translate(68.26 -118.82) rotate(20)" />
      <rect class="cls-1" x="398.01" y="154.12" width="70" height="30" transform="translate(83.98 -137.92) rotate(20)" />
      <rect class="cls-1" x="1400.01" y="733.12" width="70" height="30" transform="translate(342.49 -445.76) rotate(20)" />
      <rect class="cls-1" x="1462.01" y="769.12" width="70" height="30" transform="translate(358.55 -464.8) rotate(20)" />
      <rect class="cls-1" x="1524.01" y="805.12" width="70" height="30" transform="translate(374.6 -483.83) rotate(20)" />
      <rect class="cls-1" x="1586.01" y="841.12" width="70" height="30" transform="translate(390.66 -502.87) rotate(20)" />
      <polygon class="cls-1" points="1704.01 922.62 1644.99 893.24 1655.01 864.62 1723.01 889.62 1704.01 922.62" />
      <rect class="cls-1" x="460.01" y="190.12" width="70" height="30" transform="translate(100.03 -156.96) rotate(20)" />
      <rect class="cls-1" x="522.01" y="226.12" width="70" height="30" transform="translate(116.09 -176) rotate(20)" />
      <rect class="cls-1" x="584.01" y="262.12" width="70" height="30" transform="translate(132.14 -195.03) rotate(20)" />
      <rect class="cls-1" x="646.01" y="298.12" width="70" height="30" transform="translate(148.2 -214.07) rotate(20)" />
      <rect class="cls-1" x="708.01" y="334.12" width="70" height="30" transform="translate(164.25 -233.11) rotate(20)" />
    </g>
  </g>
</svg>
