<svg xmlns="http://www.w3.org/2000/svg" viewBox="0 0 93.79 103.94">
  <defs>
    <style>.cls-1{fill:#009fe3;}.cls-2,.cls-3{fill:none;stroke-miterlimit:10;stroke-width:2px;}.cls-2{stroke:#009fe3;}.cls-3{stroke:#e62c56;stroke-linecap:round;}</style>
  </defs>
  <g id="Ebene_2" data-name="Ebene 2">
    <g id="_4._Zeichenfläche" data-name="4. Zeichenfläche">
      <rect class="cls-1" x="2.12" y="40.63" width="45" height="22" rx="1" transform="translate(29.11 -5.39) rotate(30)" />
      <rect class="cls-1" x="42.86" y="61.13" width="5.28" height="5.28" rx="1" transform="matrix(0.5, -0.87, 0.87, 0.5, -32.48, 71.29)" />
      <path class="cls-2" d="M45.45,64a23.32,23.32,0,0,1,3.39,1.45c3.23,1.68,8.8,3.59,11.21,9.29,5,11.76,19.57,8.5,23.76,18.86a18,18,0,0,0,9.64,9.4" />
      <path class="cls-3" d="M26.14,1c5.3,4.6,9.18,8.74,8.23,10.42-1.26,2.24-10.24-1.21-11.27.9-1.14,2.34,9.79,6.14,9.31,11.89-.33,4-8.51,0-10.57,4.93" />
      <path class="cls-3" d="M39,7c5.3,4.6,9.18,8.74,8.23,10.43C46,19.62,37,16.17,36,18.28c-1.14,2.35,9.79,6.14,9.31,11.9-.33,4-8.51,0-10.57,4.93" />
      <path class="cls-3" d="M51.35,14.85c5.3,4.6,9.18,8.74,8.23,10.43-1.26,2.23-10.24-1.22-11.27.89-1.14,2.35,9.79,6.14,9.31,11.9-.33,4-8.51,0-10.57,4.93" />
    </g>
  </g>
</svg>
