<svg xmlns="http://www.w3.org/2000/svg" viewBox="0 0 39.88 44">
  <defs>
    <style>.cls-1{fill:none;stroke:#e62c56;stroke-linecap:round;stroke-miterlimit:10;stroke-width:2px;}</style>
  </defs>
  <g id="Ebene_2" data-name="Ebene 2">
    <g id="_4._Zeichenfläche" data-name="4. Zeichenfläche">
      <path class="cls-1" d="M5.3,1c5.3,4.6,9.18,8.74,8.23,10.42-1.26,2.24-10.24-1.21-11.27.9-1.14,2.34,9.79,6.14,9.31,11.89-.33,4-8.51,0-10.57,4.93" />
      <path class="cls-1" d="M18.15,7c5.3,4.6,9.18,8.74,8.23,10.43-1.26,2.23-10.24-1.22-11.27.89-1.14,2.35,9.79,6.14,9.31,11.9-.33,4-8.51,0-10.57,4.93" />
      <path class="cls-1" d="M30.51,14.85c5.3,4.6,9.18,8.74,8.23,10.43-1.26,2.23-10.24-1.22-11.26.89-1.15,2.35,9.78,6.14,9.3,11.9-.33,4-8.51,0-10.57,4.93" />
    </g>
  </g>
</svg>
