<svg xmlns="http://www.w3.org/2000/svg" viewBox="0 0 20 20">
  <defs>
    <style>.cls-1{fill:none;stroke:#76c7ee;stroke-miterlimit:10;}</style>
  </defs>
  <g id="Ebene_2" data-name="Ebene 2">
    <g id="_4._Zeichenfläche" data-name="4. Zeichenfläche">
      <line class="cls-1" x1="10" x2="10" y2="20" />
      <line class="cls-1" x1="20" y1="10.2" y2="10.2" />
      <line class="cls-1" x1="17.07" y1="17.27" x2="2.93" y2="3.13" />
      <line class="cls-1" x1="17.27" y1="3" x2="3.13" y2="17.14" />
      <polyline class="cls-1" points="14.6 1.6 14.6 5.6 18.6 5.6" />
      <polyline class="cls-1" points="7.17 1 10 3.83 12.83 1" />
      <polyline class="cls-1" points="19.2 7.37 16.37 10.2 19.2 13.03" />
      <polyline class="cls-1" points="12.83 19.42 10 16.59 7.17 19.42" />
      <polyline class="cls-1" points="1.6 5.8 5.6 5.8 5.6 1.8" />
      <polyline class="cls-1" points="18.5 14.8 14.5 14.8 14.5 18.8" />
      <polyline class="cls-1" points="6.1 18.1 6.1 14.1 2.1 14.1" />
      <polyline class="cls-1" points="0.99 13.04 3.81 10.22 0.99 7.39" />
    </g>
  </g>
</svg>
