<?xml version="1.0" encoding="UTF-8" standalone="no"?>
<svg
  xmlns="http://www.w3.org/2000/svg"
  viewBox="0 0 24 24"
  version="1.1"
  width="24"
  height="24">
  <path
    d="m 12,0.16992188 c -2.1772152,0 -4.0356899,0.77006687 -5.5761719,2.31054692 -1.540482,1.54049 -2.3105469,3.3989518 -2.3105469,5.5761718 0,1.1194 0.1689065,2.0389224 0.5078126,2.7578124 l 5.6230472,11.921875 c 0.154047,0.33891 0.393295,0.607614 0.716797,0.802734 0.323501,0.19513 0.669345,0.291016 1.039062,0.291016 0.369715,0 0.715562,-0.09592 1.039062,-0.291016 0.323502,-0.195119 0.568105,-0.463824 0.732422,-0.802734 l 5.607422,-11.921875 c 0.338906,-0.71889 0.507811,-1.6384024 0.507813,-2.7578124 0,-2.17722 -0.770065,-4.0356818 -2.310547,-5.5761718 C 16.035689,0.93998875 14.177212,0.16992188 12,0.16992188 Z m 0.03455,1.63507092 c 3.56283,1.284e-4 6.416497,2.905614 6.416626,6.4684447 C 18.451043,11.836268 15.562831,14.724481 12,14.724609 8.4371695,14.72448 5.5489568,11.836268 5.5488281,8.2734375 5.5509124,6.9336875 5.9700461,5.6278198 6.7480469,4.5371094 7.9566232,2.8360523 9.9478626,1.8073238 12.034546,1.8049928 Z"
  />
</svg>
