<svg xmlns="http://www.w3.org/2000/svg" viewBox="0 0 68 204.5"><defs><style>.cls-1,.cls-4{fill:#fff;}.cls-1,.cls-3,.cls-4{stroke:#002e46;}.cls-1,.cls-2,.cls-3{stroke-miterlimit:10;}.cls-2,.cls-3{fill:#9fd5d8;}.cls-2{stroke:#000;}.cls-4{stroke-linecap:round;stroke-linejoin:round;}</style></defs><g id="Ebene_2" data-name="Ebene 2"><g id="Ebene_1-2" data-name="Ebene 1"><rect class="cls-1" x="29" y="71" width="10" height="112"/><rect class="cls-1" x="0.5" y="64" width="67" height="7"/><rect class="cls-1" x="24" y="54.5" width="20" height="9"/><rect class="cls-2" x="49" y="16" width="10" height="10"/><path class="cls-3" d="M25,45.5s-6-6.59-6-8V3.5a3,3,0,0,1,3-3H46a3,3,0,0,1,3,3v34c0,1.46-6,8-6,8"/><rect class="cls-3" x="25" y="45.5" width="18" height="7"/><polygon class="cls-4" points="30 183 30 196 33 204 33 183 30 183"/><polygon class="cls-4" points="38 183 38 196 35 204 35 183 38 183"/></g></g></svg>