<svg xmlns="http://www.w3.org/2000/svg" viewBox="0 0 389.83 794"><defs><style>.cls-1{fill:#ccc;}.cls-1,.cls-2,.cls-4,.cls-5{stroke:#002e46;}.cls-1,.cls-2,.cls-3,.cls-4{stroke-miterlimit:10;}.cls-2,.cls-5{fill:#fff;}.cls-3,.cls-4{fill:#9fd5d8;}.cls-3{stroke:#000;}.cls-5{stroke-linecap:round;stroke-linejoin:round;}</style></defs><g id="Ebene_2" data-name="Ebene 2"><g id="Ebene_1-2" data-name="Ebene 1"><polygon class="cls-1" points="197 102.5 136 102.5 136 73.5 150 73.5 150 84.5 197 84.5 239.83 84.5 239.83 73.5 253.83 73.5 253.83 102.5 197 102.5"/><rect class="cls-2" x="268.33" y="71" width="10" height="112"/><rect class="cls-2" x="239.83" y="64" width="67" height="7"/><rect class="cls-2" x="263.33" y="54.5" width="20" height="9"/><rect class="cls-3" x="288.33" y="16" width="10" height="10"/><path class="cls-4" d="M264.33,45.5s-6-6.59-6-8V3.5a3,3,0,0,1,3-3h24a3,3,0,0,1,3,3v34c0,1.46-6,8-6,8"/><rect class="cls-4" x="264.33" y="45.5" width="18" height="7"/><polygon class="cls-5" points="269.33 183 269.33 196 272.33 204 272.33 183 269.33 183"/><polygon class="cls-5" points="277.33 183 277.33 196 274.33 204 274.33 183 277.33 183"/><path class="cls-1" d="M195,793.5H115.5c-63.25,0-115-51.75-115-115v-479c0-52,34.94-96.18,82.5-110.29V73.5H97v31.57C53,115,19.5,155.23,19.5,202.5v473c0,55,45,100,100,100H270.33c55,0,100-45,100-100v-473c0-47.27-33.24-87.15-77.5-97.43V73.5h14V89.21c47.56,14.11,82.5,58.31,82.5,110.29v479c0,63.25-51.75,115-115,115Z"/><rect class="cls-2" x="106.5" y="54.5" width="20" height="9"/><rect class="cls-3" x="91.5" y="14.5" width="10" height="10"/><path class="cls-4" d="M107.5,45.5s-6-6.59-6-8V3.5a3,3,0,0,1,3-3h24a3,3,0,0,1,3,3v34c0,1.46-6,8-6,8"/><rect class="cls-4" x="107.5" y="45.5" width="18" height="7"/><path class="cls-2" d="M126.5,70.5c0,5-4.48,9-10,9s-10-4-10-9"/><rect class="cls-2" x="83" y="64" width="67" height="7"/></g></g></svg>