<svg xmlns="http://www.w3.org/2000/svg" viewBox="0 0 24 24" height="24" width="24">
  <path
    d="M0 0H1.142V1.142H0ZM1.142 0H2.285V1.142H1.142ZM2.285 0H3.427V1.142H2.285Zm1.142 0h1.142v1.142h-1.142zm1.142 0h1.142v1.142h-1.142zm1.142 0H6.854V1.142H5.712ZM6.854 0H7.997V1.142H6.854Zm3.427 0h1.142v1.142h-1.142zm1.142 0h1.142v1.142h-1.142zm4.569 0h1.142v1.142h-1.142zm1.142 0h1.142v1.142h-1.142zm1.142 0h1.142v1.142h-1.142zm1.142 0h1.142v1.142h-1.142zm1.142 0h1.142v1.142h-1.142zm1.142 0h1.142v1.142h-1.142zm1.142 0h1.142V1.142H22.847ZM0 1.142H1.142V2.285H0Zm6.854 0H7.997V2.285H6.854Zm2.285 0H10.281V2.285H9.139Zm3.427 0h1.142V2.285h-1.142zm1.142 0h1.142V2.285h-1.142zm2.285 0h1.142V2.285h-1.142zm6.854 0h1.142V2.285H22.847ZM0 2.285H1.142V3.427H0Zm2.285 0H3.427V3.427H2.285Zm1.142 0h1.142v1.142h-1.142zm1.142 0h1.142v1.142h-1.142zm2.285 0H7.997V3.427H6.854Zm9.139 0h1.142v1.142h-1.142zm2.285 0h1.142v1.142h-1.142zm1.142 0h1.142v1.142h-1.142zm1.142 0h1.142v1.142h-1.142zm2.285 0h1.142V3.427H22.847ZM0 3.427H1.142V4.569H0Zm2.285 0H3.427V4.569H2.285Zm1.142 0h1.142v1.142h-1.142zm1.142 0h1.142v1.142h-1.142zm2.285 0H7.997V4.569H6.854Zm2.285 0H10.281V4.569H9.139Zm2.285 0h1.142v1.142h-1.142zm1.142 0h1.142v1.142h-1.142zm3.427 0h1.142v1.142h-1.142zm2.285 0h1.142v1.142h-1.142zm1.142 0h1.142v1.142h-1.142zm1.142 0h1.142v1.142h-1.142zm2.285 0h1.142V4.569H22.847ZM0 4.569H1.142V5.712H0Zm2.285 0H3.427V5.712H2.285Zm1.142 0h1.142v1.142h-1.142zm1.142 0h1.142v1.142h-1.142zm2.285 0H7.997V5.712H6.854Zm9.139 0h1.142v1.142h-1.142zm2.285 0h1.142v1.142h-1.142zm1.142 0h1.142v1.142h-1.142zm1.142 0h1.142v1.142h-1.142zm2.285 0h1.142V5.712H22.847ZM0 5.712H1.142V6.854H0Zm6.854 0H7.997V6.854H6.854Zm2.285 0H10.281V6.854H9.139Zm1.142 0h1.142v1.142h-1.142zm3.427 0h1.142v1.142h-1.142zm2.285 0h1.142v1.142h-1.142zm6.854 0h1.142V6.854H22.847ZM0 6.854H1.142V7.997H0Zm1.142 0H2.285V7.997H1.142Zm1.142 0H3.427V7.997H2.285Zm1.142 0h1.142v1.142h-1.142zm1.142 0h1.142v1.142h-1.142zm1.142 0H6.854V7.997H5.712Zm1.142 0H7.997V7.997H6.854Zm2.285 0H10.281V7.997H9.139Zm2.285 0h1.142v1.142h-1.142zm2.285 0h1.142v1.142h-1.142zm2.285 0h1.142v1.142h-1.142zm1.142 0h1.142v1.142h-1.142zm1.142 0h1.142v1.142h-1.142zm1.142 0h1.142v1.142h-1.142zm1.142 0h1.142v1.142h-1.142zm1.142 0h1.142v1.142h-1.142zm1.142 0h1.142V7.997H22.847ZM10.281 7.997h1.142V9.139H10.281ZM0 9.139H1.142V10.281H0Zm1.142 0H2.285V10.281H1.142Zm1.142 0H3.427V10.281H2.285Zm1.142 0h1.142v1.142h-1.142zm1.142 0h1.142v1.142h-1.142zm2.285 0H7.997V10.281H6.854Zm1.142 0H9.139V10.281H7.997Zm1.142 0H10.281V10.281H9.139Zm1.142 0h1.142v1.142h-1.142zm3.427 0h1.142v1.142h-1.142zm1.142 0h1.142v1.142h-1.142zm2.285 0h1.142v1.142h-1.142zm2.285 0h1.142v1.142h-1.142zm2.285 0h1.142V10.281H21.705ZM1.142 10.281h1.142v1.142H1.142Zm1.142 0h1.142v1.142H2.285Zm1.142 0h1.142v1.142h-1.142zm1.142 0h1.142v1.142h-1.142zm1.142 0h1.142v1.142H5.712Zm2.285 0h1.142v1.142H7.997Zm2.285 0h1.142v1.142h-1.142zm2.285 0h1.142v1.142h-1.142zm2.285 0h1.142v1.142h-1.142zm1.142 0h1.142v1.142h-1.142zm1.142 0h1.142v1.142h-1.142zm1.142 0h1.142v1.142h-1.142zm1.142 0h1.142v1.142h-1.142zm1.142 0h1.142v1.142h-1.142zm1.142 0h1.142v1.142h-1.142zm1.142 0h1.142v1.142H22.847ZM0 11.424h1.142v1.142H0Zm1.142 0h1.142v1.142H1.142Zm1.142 0h1.142v1.142H2.285Zm1.142 0h1.142v1.142h-1.142zm1.142 0h1.142v1.142h-1.142zm1.142 0h1.142v1.142H5.712Zm1.142 0h1.142v1.142H6.854Zm1.142 0h1.142v1.142H7.997Zm1.142 0h1.142v1.142H9.139Zm3.427 0h1.142v1.142h-1.142zm1.142 0h1.142v1.142h-1.142zm1.142 0h1.142v1.142h-1.142zm1.142 0h1.142v1.142h-1.142zm1.142 0h1.142v1.142h-1.142zm3.427 0h1.142v1.142h-1.142zm1.142 0h1.142v1.142H21.705ZM5.712 12.566h1.142v1.142H5.712Zm3.427 0h1.142v1.142H9.139Zm2.285 0h1.142v1.142h-1.142zm1.142 0h1.142v1.142h-1.142zm1.142 0h1.142v1.142h-1.142zm1.142 0h1.142v1.142h-1.142zm3.427 0h1.142v1.142h-1.142zm1.142 0h1.142v1.142h-1.142zm1.142 0h1.142v1.142H20.563ZM1.142 13.708H2.285V14.851H1.142Zm1.142 0H3.427V14.851H2.285Zm2.285 0h1.142v1.142h-1.142zm2.285 0H7.997V14.851H6.854Zm1.142 0H9.139V14.851H7.997Zm2.285 0h1.142v1.142h-1.142zm3.427 0h1.142v1.142h-1.142zm2.285 0h1.142v1.142h-1.142zm2.285 0h1.142v1.142h-1.142zm1.142 0h1.142v1.142h-1.142zm3.427 0h1.142V14.851H22.847ZM9.139 14.851h1.142v1.142H9.139Zm2.285 0h1.142v1.142h-1.142zm3.427 0h1.142v1.142h-1.142zm1.142 0h1.142v1.142h-1.142zm1.142 0h1.142v1.142h-1.142zm1.142 0h1.142v1.142h-1.142zm1.142 0h1.142v1.142h-1.142zm1.142 0h1.142v1.142h-1.142zm2.285 0h1.142v1.142H22.847ZM0 15.993h1.142v1.142H0Zm1.142 0h1.142v1.142H1.142Zm1.142 0h1.142v1.142H2.285Zm1.142 0h1.142v1.142h-1.142zm1.142 0h1.142v1.142h-1.142zm1.142 0h1.142v1.142H5.712Zm1.142 0h1.142v1.142H6.854Zm2.285 0h1.142v1.142H9.139Zm1.142 0h1.142v1.142h-1.142zm1.142 0h1.142v1.142h-1.142zm1.142 0h1.142v1.142h-1.142zm1.142 0h1.142v1.142h-1.142zm2.285 0h1.142v1.142h-1.142zm1.142 0h1.142v1.142h-1.142zm3.427 0h1.142v1.142h-1.142zm1.142 0h1.142v1.142H21.705ZM0 17.135h1.142v1.142H0Zm6.854 0h1.142v1.142H6.854Zm5.712 0h1.142v1.142h-1.142zm2.285 0h1.142v1.142h-1.142zm2.285 0h1.142v1.142h-1.142zm1.142 0h1.142v1.142h-1.142zm1.142 0h1.142v1.142h-1.142zm1.142 0h1.142v1.142h-1.142zm1.142 0h1.142v1.142H21.705ZM0 18.278h1.142v1.142H0Zm2.285 0h1.142v1.142H2.285Zm1.142 0h1.142v1.142h-1.142zm1.142 0h1.142v1.142h-1.142zm2.285 0h1.142v1.142H6.854Zm2.285 0h1.142v1.142H9.139Zm1.142 0h1.142v1.142h-1.142zm5.712 0h1.142v1.142h-1.142zm1.142 0h1.142v1.142h-1.142zm1.142 0h1.142v1.142h-1.142zm1.142 0h1.142v1.142H19.42ZM0 19.42h1.142v1.142H0Zm2.285 0h1.142v1.142H2.285Zm1.142 0h1.142v1.142h-1.142zm1.142 0h1.142v1.142h-1.142zm2.285 0h1.142v1.142H6.854Zm2.285 0h1.142v1.142H9.139Zm1.142 0h1.142v1.142h-1.142zm4.569 0h1.142v1.142h-1.142zm3.427 0h1.142v1.142h-1.142zm2.285 0h1.142v1.142h-1.142zm1.142 0h1.142v1.142H21.705ZM0 20.563h1.142v1.142H0Zm2.285 0h1.142v1.142H2.285Zm1.142 0h1.142v1.142h-1.142zm1.142 0h1.142v1.142h-1.142zm2.285 0h1.142v1.142H6.854Zm2.285 0h1.142v1.142H9.139Zm3.427 0h1.142v1.142h-1.142zm1.142 0h1.142v1.142h-1.142zm1.142 0h1.142v1.142h-1.142zm2.285 0h1.142v1.142h-1.142zm3.427 0h1.142v1.142H20.563ZM0 21.705h1.142v1.142H0Zm6.854 0h1.142v1.142H6.854Zm2.285 0h1.142v1.142H9.139Zm1.142 0h1.142v1.142h-1.142zm1.142 0h1.142v1.142h-1.142zm1.142 0h1.142v1.142h-1.142zm2.285 0h1.142v1.142h-1.142zm3.427 0h1.142v1.142h-1.142zm1.142 0h1.142v1.142h-1.142zm1.142 0h1.142v1.142H20.563ZM0 22.847H1.142V23.99H0Zm1.142 0H2.285V23.99H1.142Zm1.142 0H3.427V23.99H2.285Zm1.142 0h1.142v1.142h-1.142zm1.142 0h1.142v1.142h-1.142zm1.142 0H6.854V23.99H5.712Zm1.142 0H7.997V23.99H6.854Zm2.285 0H10.281V23.99H9.139Zm1.142 0h1.142v1.142h-1.142zm3.427 0h1.142v1.142h-1.142zm2.285 0h1.142v1.142h-1.142zm1.142 0h1.142v1.142h-1.142zm2.285 0h1.142v1.142h-1.142zm2.285 0h1.142v1.142h-1.142z"
    fill="#666" />
</svg>
