<?xml version="1.0" encoding="UTF-8" standalone="no"?>
<svg
  xmlns="http://www.w3.org/2000/svg"
  width="24"
  height="24"
  viewBox="0 0 24 24">
  <path
    d="M0 0h24v24H0z"
    fill="none"
    id="path834" />
  <path
    fill="#666"
    d="M 5.4 1.8 L 3.8 2.8 L 7 7.3 L 7 9 L 8.2 9 L 9.6 11 L 7 11 L 7 13 L 11 13 L 12.4 15 L 7 15 L 7 17 L 13.8 17 L 17.2 21.8 L 18.7 20.8 L 5.4 1.8 z M 3 7 L 3 9 L 5 9 L 5 7 L 3 7 z M 11.2 7 L 12.6 9 L 21 9 L 21 7 L 11.2 7 z M 3 11 L 3 13 L 5 13 L 5 11 L 3 11 z M 14 11 L 15.4 13 L 21 13 L 21 11 L 14 11 z M 3 15 L 3 17 L 5 17 L 5 15 L 3 15 z M 16.8 15 L 18.2 17 L 21 17 L 21 15 L 16.8 15 z "
    id="path836" />
</svg>
